<svg xmlns="http://www.w3.org/2000/svg" xmlns:xlink="http://www.w3.org/1999/xlink" width="197" height="49" viewBox="0 0 197 49">
    <defs>
        <path id="a" d="M0 .069h15.573v28.206H0z"/>
        <path id="c" d="M.598.54h55v35.945h-55z"/>
    </defs>
    <g fill="none" fill-rule="evenodd">
        <g transform="translate(.429 10.079)">
            <mask id="b" fill="#fff">
                <use xlink:href="#a"/>
            </mask>
            <path fill="#FFF" d="M15.573 25.264c0 1.639-1.373 3.01-3.016 3.01H3.054c-1.68 0-3.054-1.371-3.054-3.01V3.08C0 1.441 1.373.07 3.054.07h9.503c1.643 0 3.016 1.372 3.016 3.011 0 1.716-1.373 3.087-3.016 3.087h-6.45v5.337h6.108a2.677 2.677 0 0 1 2.671 2.668 2.653 2.653 0 0 1-2.671 2.667H6.107v5.337h6.45c1.643 0 3.016 1.372 3.016 3.088" mask="url(#b)"/>
        </g>
        <path fill="#FFF" d="M34.252 37.63c-1.222 1.066-3.17.99-4.276-.343l-3.168-3.774-3.13 3.774c-1.106 1.333-3.091 1.449-4.275.343-1.26-1.144-1.489-2.973-.382-4.27l3.855-4.573-3.855-4.612c-1.069-1.296-.915-3.201.382-4.27 1.26-1.066 3.169-.914 4.275.382l3.13 3.773 3.168-3.773c1.069-1.296 2.978-1.448 4.276-.382a3.056 3.056 0 0 1 .38 4.27l-3.855 4.612 3.856 4.574c1.07 1.296.878 3.164-.381 4.269M47.423 25.051a3.678 3.678 0 0 0-3.701 3.698 3.678 3.678 0 0 0 3.701 3.697 3.68 3.68 0 0 0 3.704-3.697 3.68 3.68 0 0 0-3.704-3.698m0 13.455a10.01 10.01 0 0 1-3.701-.724l.043 7.63a3.02 3.02 0 0 1-3.017 3.01h-.266c-1.527-.075-2.787-1.334-2.787-2.896l-.043-23.372c0-1.562 1.298-2.858 2.863-2.858.878 0 1.603.343 2.137.915a10.087 10.087 0 0 1 4.771-1.22c5.383 0 9.772 4.384 9.772 9.758 0 5.374-4.39 9.757-9.772 9.757M72.505 26.767c-.343-1.448-1.946-2.82-3.893-2.82-1.91 0-3.55 1.372-3.894 2.82h7.787zm2.33 4.345H64.68c1.68 2.554 4.849 2.934 7.291 1.6 1.222-.762 2.825-.304 3.55.916.726 1.258.305 2.858-.917 3.582a10.818 10.818 0 0 1-5.458 1.449c-4.39 0-7.825-2.478-9.351-5.642-1.183-2.439-1.145-5.45-.115-7.927a9.68 9.68 0 0 1 8.97-5.947 9.726 9.726 0 0 1 9.658 8.538c.23 2.288-1.299 3.43-3.474 3.43zM92.473 22.345c-.076 1.677-1.527 2.859-3.207 2.897-1.335.038-2.443 1.029-2.443 2.325v7.776a2.995 2.995 0 0 1-3.015 3.011 2.995 2.995 0 0 1-3.016-3.01v-13.19a2.857 2.857 0 0 1 2.863-2.858c.725 0 1.375.267 1.91.724 1.564-.8 3.282-.839 4.045-.839 1.68.039 2.94 1.487 2.863 3.164M105.911 35.304a3.06 3.06 0 0 1-3.053 3.05h-.573c-4.504 0-7.71-3.545-7.71-7.967V16.285a3.06 3.06 0 0 1 3.053-3.05 3.061 3.061 0 0 1 3.055 3.05v3.011h2.785a2.654 2.654 0 0 1 2.672 2.668c0 1.449-1.183 2.63-2.672 2.63h-2.785v5.793c0 .954.496 1.868 1.602 1.868h.573a3.06 3.06 0 0 1 3.053 3.05M113.168 28.901a3.678 3.678 0 0 0 3.701 3.697 3.679 3.679 0 0 0 3.704-3.697 3.68 3.68 0 0 0-3.704-3.697 3.678 3.678 0 0 0-3.701 3.697m13.473 0c0 5.374-4.389 9.758-9.772 9.758-5.381 0-9.771-4.384-9.771-9.758 0-5.374 4.39-9.758 9.771-9.758 5.383 0 9.772 4.384 9.772 9.758M136.036 24.328c-.726-.23-1.794-.497-1.985.342-.19.763 1.183 1.144 1.756 1.258 1.146.228 2.252.877 3.053 1.753 1.756 1.83 2.139 4.727 1.146 7.014-1.03 2.364-3.398 3.773-5.916 3.925-1.413.076-4.352-.304-5.536-1.867-1.489-1.982-.038-4.764 2.366-4.65.955.039 1.986.762 2.787.8 1.375.114 1.68-1.563.383-1.905-2.405-.725-4.162-1.677-5.268-3.888-.803-1.677-.61-3.774.534-5.298 1.832-2.478 5.306-3.316 8.168-2.211 1.527.61 2.787 2.172 1.832 3.85-.687 1.144-1.869 1.372-3.32.877"/>
        <g transform="translate(141.335 -.016)">
            <mask id="d" fill="#fff">
                <use xlink:href="#c"/>
            </mask>
            <path fill="#EF9600" d="M45.791 14.413c-1.167-5.64-4.594-8.876-9.197-8.876-1.318 0-2.875.307-4.33.847C29.101 2.217 25.464.54 22.061.54c-6.824 0-12.716 6.736-12.023 13.649.019.21.024.409.029.619-4.452.975-9.714 5.56-9.46 10.695.248 5.128 3.758 10.933 9.396 10.933l3.598.049v-3.997l-3.598-.034c-3.544 0-5.271-4.314-5.399-6.951-.146-2.983 3.55-6.195 6.328-6.805l3.25-.712-.112-3.31v-.082c-.01-.268-.019-.532-.049-.805-.225-2.228.644-4.665 2.328-6.513 1.593-1.749 3.672-2.75 5.712-2.75 4.252 0 6.82 4.018 8.813 6.637l2.801-1.044c4.389-1.644 7.234.471 8.196 5.099l.722 3.295h3.003c2.684 0 6.087 2.544 6 5.99-.107 3.92-3.769 7.951-7.226 7.951l-1.777.034v3.993l1.777-.045c5.928 0 11.068-6.186 11.224-11.933.151-5.751-4.92-10.09-9.803-10.09" mask="url(#d)"/>
        </g>
        <path fill="#EF9600" d="M158.087 48.567a3.166 3.166 0 0 1-3.162-3.158V22.145c0-1.719 1.4-3.158 3.162-3.158a3.166 3.166 0 0 1 3.163 3.158V45.41c0 1.72-1.401 3.158-3.163 3.158"/>
        <path fill="#FFF" d="M176.862 28.141c0-1.52-1.24-2.758-2.803-2.758h-3.002v5.556h3.002c1.562 0 2.803-1.199 2.803-2.798m6.404 0c0 5.077-4.123 9.194-9.207 9.194h-3.002v8.035a3.208 3.208 0 0 1-3.202 3.197 3.183 3.183 0 0 1-3.202-3.197V22.185c0-1.76 1.4-3.198 3.202-3.198h6.204c5.084 0 9.207 4.118 9.207 9.154M51.627 43.922v.283h-1.592v4.104h-.738v-4.104h-1.59v-.283zM55.652 46.014a.927.927 0 0 0-.067-.357.877.877 0 0 0-.807-.547c-.101 0-.2.023-.292.068a.78.78 0 0 0-.249.188 1.08 1.08 0 0 0-.265.644l1.68.004zm-.67 2.368a1.673 1.673 0 0 1-1.532-1.002 1.559 1.559 0 0 1-.132-.637c0-.27.04-.52.12-.75.08-.232.192-.432.337-.6a1.555 1.555 0 0 1 1.21-.535c.223 0 .426.039.611.117.185.078.345.183.478.315s.237.283.311.454c.073.171.11.352.11.54h-2.528c0 .229.03.439.087.633.06.193.142.36.25.502.106.14.232.251.378.33.145.08.305.12.48.12.146 0 .287-.024.42-.07.135-.047.255-.11.365-.187.11-.078.204-.166.28-.266a.962.962 0 0 0 .164-.306l.195.086a1.56 1.56 0 0 1-.234.488 1.957 1.957 0 0 1-.379.399 1.82 1.82 0 0 1-.474.27c-.17.066-.344.099-.518.099zM59.71 48.31h-.676v-4.924l.482-.193h.194zM64.493 46.014a.927.927 0 0 0-.067-.357.877.877 0 0 0-.807-.547.667.667 0 0 0-.292.068.78.78 0 0 0-.249.188 1.08 1.08 0 0 0-.265.644l1.68.004zm-.67 2.368a1.673 1.673 0 0 1-1.532-1.002 1.568 1.568 0 0 1-.132-.637c0-.27.04-.52.12-.75.08-.232.192-.432.337-.6a1.555 1.555 0 0 1 1.21-.535c.223 0 .426.039.61.117.186.078.346.183.479.315s.237.283.311.454c.073.171.11.352.11.54h-2.528c0 .229.029.439.087.633.06.193.142.36.248.502.108.14.234.251.379.33a.98.98 0 0 0 .48.12c.147 0 .288-.024.422-.07.134-.047.254-.11.364-.187.11-.078.204-.166.28-.266a.962.962 0 0 0 .164-.306l.195.086c-.05.174-.126.337-.235.488a1.923 1.923 0 0 1-.379.399 1.806 1.806 0 0 1-.473.27c-.171.066-.344.099-.518.099zM69.286 48.382a1.5 1.5 0 0 1-.624-.131 1.597 1.597 0 0 1-.508-.358 1.723 1.723 0 0 1-.469-1.185A1.893 1.893 0 0 1 68.2 45.4c.16-.166.346-.298.56-.397a1.63 1.63 0 0 1 .684-.145c.19 0 .364.021.525.063.16.041.3.099.415.17a.874.874 0 0 1 .27.254.57.57 0 0 1 .097.318c0 .05-.013.1-.039.147a.356.356 0 0 1-.103.118.583.583 0 0 1-.144.08.458.458 0 0 1-.16.029.374.374 0 0 1-.29-.117.373.373 0 0 1-.106-.257.886.886 0 0 0-.026-.218.4.4 0 0 0-.261-.292.774.774 0 0 0-.281-.044c-.153 0-.291.031-.414.093a.924.924 0 0 0-.306.251 1.215 1.215 0 0 0-.19.372 1.461 1.461 0 0 0-.069.45c0 .216.029.42.084.615.055.192.135.362.238.506.104.144.23.26.375.344a.939.939 0 0 0 .484.129c.157 0 .292-.025.408-.075a.937.937 0 0 0 .301-.2c.087-.084.16-.182.222-.293.062-.111.116-.227.165-.351l.202.081c-.114.43-.304.761-.57.997-.266.236-.594.354-.984.354M75.038 48.134a.688.688 0 0 0 .362-.101.955.955 0 0 0 .284-.275c.08-.115.142-.25.187-.402.045-.154.068-.316.068-.487 0-.246-.022-.475-.063-.689a1.763 1.763 0 0 0-.205-.557 1.084 1.084 0 0 0-.37-.376 1.059 1.059 0 0 0-.557-.137.605.605 0 0 0-.328.099.995.995 0 0 0-.28.268 1.41 1.41 0 0 0-.194.393c-.048.15-.073.31-.073.482 0 .246.028.477.08.693.052.216.128.405.227.567.1.162.222.29.366.382a.89.89 0 0 0 .496.14m-.127.248c-.261 0-.502-.046-.72-.135-.22-.09-.41-.213-.569-.37a1.68 1.68 0 0 1-.505-1.214c0-.25.045-.484.133-.702a1.73 1.73 0 0 1 .94-.96c.219-.096.46-.143.721-.143.256 0 .493.044.712.13.22.087.409.206.566.356.158.15.282.325.372.526.09.201.135.418.135.648a1.9 1.9 0 0 1-.507 1.317 1.731 1.731 0 0 1-1.278.547M79.131 44.926h.676v.634a2.64 2.64 0 0 1 .623-.493c.116-.064.232-.116.348-.153a1.07 1.07 0 0 1 .327-.056 1.068 1.068 0 0 1 .59.203.908.908 0 0 1 .223.227.77.77 0 0 1 .124.285 1.12 1.12 0 0 1 .232-.278 1.75 1.75 0 0 1 .703-.381c.134-.038.266-.056.394-.056.126 0 .246.028.358.083a.942.942 0 0 1 .296.23 1.136 1.136 0 0 1 .27.749v2.39h-.671v-2.295a.763.763 0 0 0-.184-.493.623.623 0 0 0-.192-.153.5.5 0 0 0-.232-.057c-.09 0-.185.014-.28.039-.096.025-.188.06-.275.103a1.282 1.282 0 0 0-.237.153.854.854 0 0 0-.169.187v2.515h-.67v-2.294a.724.724 0 0 0-.05-.268.745.745 0 0 0-.133-.225.628.628 0 0 0-.196-.153.516.516 0 0 0-.235-.057c-.087 0-.176.014-.269.039a1.55 1.55 0 0 0-.511.261.984.984 0 0 0-.184.182v2.515h-.676v-3.383zM87.5 44.926v2.407a.5.5 0 0 0 .06.238c.038.075.093.14.16.196.068.056.146.099.237.131.09.03.185.047.288.047a.601.601 0 0 0 .213-.043.955.955 0 0 0 .223-.117c.072-.05.14-.108.206-.175a1.14 1.14 0 0 0 .16-.214v-2.47h.67v3.383h-.67v-.634c-.06.096-.136.187-.223.272a1.681 1.681 0 0 1-.613.378.969.969 0 0 1-.314.057 1.075 1.075 0 0 1-.986-.642.97.97 0 0 1-.087-.407v-2.407h.677zM92.293 44.926h.676v.616c.204-.228.416-.4.638-.513.22-.114.445-.17.673-.17.117 0 .228.026.33.08a.867.867 0 0 1 .271.217 1.157 1.157 0 0 1 .25.723l.001 2.43h-.672v-2.313c0-.224-.05-.395-.15-.51a.491.491 0 0 0-.39-.174c-.144 0-.3.046-.47.135-.167.09-.328.209-.48.356v2.506h-.677v-3.383zM97.742 45.051l.614-.193h.257v3.451h-.871v-3.258zm.427-1.858c.07 0 .135.008.196.027a.466.466 0 0 1 .266.182.23.23 0 0 1 0 .259.415.415 0 0 1-.108.108.601.601 0 0 1-.158.072.71.71 0 0 1-.196.027.617.617 0 0 1-.352-.099c-.097-.067-.146-.146-.146-.238 0-.045.014-.088.04-.13a.455.455 0 0 1 .11-.107.632.632 0 0 1 .348-.101zM102.445 48.382c-.222 0-.43-.044-.623-.131a1.597 1.597 0 0 1-.508-.358 1.713 1.713 0 0 1-.468-1.185c0-.256.045-.496.137-.72a1.819 1.819 0 0 1 .935-.984c.213-.098.442-.146.685-.146.19 0 .365.021.526.063.16.041.299.099.414.17a.903.903 0 0 1 .27.254.568.568 0 0 1 .097.318c0 .05-.012.1-.038.147a.387.387 0 0 1-.103.118.598.598 0 0 1-.145.08.46.46 0 0 1-.161.029.37.37 0 0 1-.29-.117.374.374 0 0 1-.106-.257.887.887 0 0 0-.025-.218.429.429 0 0 0-.087-.175.429.429 0 0 0-.174-.117.773.773 0 0 0-.282-.044.896.896 0 0 0-.718.344 1.204 1.204 0 0 0-.192.372 1.461 1.461 0 0 0-.067.45c0 .216.026.42.083.615.056.192.135.362.238.506.105.144.229.26.375.344a.934.934 0 0 0 .484.129.962.962 0 0 0 .71-.274c.086-.085.16-.183.222-.294.06-.111.115-.227.163-.351l.203.081c-.114.43-.304.761-.57.997-.265.236-.594.354-.985.354M108.238 46.338a5.095 5.095 0 0 0-.456.169 2.763 2.763 0 0 0-.436.232 1.478 1.478 0 0 0-.33.286.515.515 0 0 0-.13.335c0 .084.014.163.045.236.03.074.071.138.121.194.051.056.11.1.176.133a.46.46 0 0 0 .208.049c.15 0 .288-.037.415-.11.125-.074.254-.16.387-.26v-1.264zm.675 1.971h-.675v-.463c-.078.06-.156.122-.233.187a1.57 1.57 0 0 1-.547.299c-.108.033-.234.05-.379.05a.94.94 0 0 1-.358-.066.826.826 0 0 1-.273-.177.79.79 0 0 1-.173-.265.898.898 0 0 1-.06-.334c0-.147.029-.279.086-.395.06-.114.138-.218.237-.312.1-.093.215-.174.348-.245a3.62 3.62 0 0 1 .423-.19 4.99 4.99 0 0 1 .465-.152l.464-.124v-.211c0-.156-.015-.287-.045-.392a.646.646 0 0 0-.131-.254.483.483 0 0 0-.208-.14.8.8 0 0 0-.27-.042.736.736 0 0 0-.28.045.42.42 0 0 0-.168.117.389.389 0 0 0-.084.163.857.857 0 0 0-.022.188c0 .06-.005.117-.014.17a.374.374 0 0 1-.052.143.304.304 0 0 1-.104.1.325.325 0 0 1-.163.037.318.318 0 0 1-.255-.113.423.423 0 0 1-.097-.283c0-.112.037-.216.11-.314a.987.987 0 0 1 .297-.251c.125-.07.27-.126.435-.166.166-.041.34-.061.523-.061.223 0 .41.021.564.063a.953.953 0 0 1 .37.182c.096.08.164.174.207.284.041.11.062.23.062.367v2.555zM113.044 48.382c-.223 0-.433-.044-.625-.131a1.594 1.594 0 0 1-.508-.358 1.71 1.71 0 0 1-.468-1.186 1.893 1.893 0 0 1 .513-1.307 1.86 1.86 0 0 1 .56-.397c.213-.097.441-.145.684-.145.19 0 .365.021.525.063.162.041.3.099.415.17a.87.87 0 0 1 .271.254.569.569 0 0 1 .096.318c0 .05-.013.1-.038.147a.356.356 0 0 1-.103.118.587.587 0 0 1-.145.08.456.456 0 0 1-.16.029.374.374 0 0 1-.29-.117.374.374 0 0 1-.106-.257.887.887 0 0 0-.026-.218.4.4 0 0 0-.261-.292.77.77 0 0 0-.28-.044c-.154 0-.291.031-.414.093a.912.912 0 0 0-.306.251 1.202 1.202 0 0 0-.19.372 1.462 1.462 0 0 0-.07.45c0 .216.029.42.085.615.055.192.135.362.238.506.104.144.229.26.375.344a.937.937 0 0 0 .484.129c.156 0 .291-.025.408-.075a.944.944 0 0 0 .301-.2c.086-.084.16-.182.221-.293.063-.111.117-.227.166-.351l.201.081c-.113.43-.303.761-.57.997-.265.236-.593.354-.983.354M117.063 45.051l.613-.193h.258v3.451h-.871v-3.258zm.426-1.858c.07 0 .136.008.197.027.06.018.112.043.158.074.045.032.08.068.108.108a.23.23 0 0 1 0 .259.391.391 0 0 1-.108.108.589.589 0 0 1-.158.072.71.71 0 0 1-.197.027.617.617 0 0 1-.35-.099c-.098-.067-.147-.146-.147-.238a.23.23 0 0 1 .041-.13.436.436 0 0 1 .108-.107.632.632 0 0 1 .348-.101zM122.105 48.134a.681.681 0 0 0 .362-.101.931.931 0 0 0 .283-.275c.08-.115.144-.25.189-.402.045-.154.067-.316.067-.487 0-.246-.02-.475-.064-.689-.04-.212-.11-.399-.204-.557a1.076 1.076 0 0 0-.37-.376 1.061 1.061 0 0 0-.556-.137.607.607 0 0 0-.33.099 1.012 1.012 0 0 0-.28.268 1.534 1.534 0 0 0-.265.875c0 .246.026.477.08.693.052.216.128.405.228.567.099.162.22.29.363.382.145.094.31.14.497.14m-.127.248c-.26 0-.5-.046-.72-.135a1.773 1.773 0 0 1-.569-.37 1.71 1.71 0 0 1-.372-.546 1.721 1.721 0 0 1-.133-.668c0-.25.046-.484.133-.702.089-.22.214-.41.372-.574.16-.164.35-.293.568-.387.22-.095.46-.142.721-.142.257 0 .494.044.712.13.22.087.408.206.565.356.159.15.283.325.372.526.09.201.136.418.136.648a1.926 1.926 0 0 1-.508 1.317 1.723 1.723 0 0 1-1.277.547M126.198 44.926h.676v.616c.205-.228.417-.4.638-.513.22-.114.445-.17.673-.17a.71.71 0 0 1 .332.08.867.867 0 0 1 .27.217c.078.093.138.201.183.325.045.125.067.258.067.399v2.43h-.67v-2.314c0-.224-.05-.395-.152-.51a.494.494 0 0 0-.39-.174c-.144 0-.3.046-.468.135-.17.09-.33.209-.483.356v2.506h-.676v-3.383zM133.776 46.014a.927.927 0 0 0-.255-.643.884.884 0 0 0-.62-.261.675.675 0 0 0-.294.068.786.786 0 0 0-.246.188 1.065 1.065 0 0 0-.267.644l1.682.004zm-.672 2.368c-.229 0-.444-.043-.645-.129a1.645 1.645 0 0 1-.528-.351 1.622 1.622 0 0 1-.36-.522 1.589 1.589 0 0 1-.13-.637c0-.27.04-.52.12-.75.078-.232.192-.432.337-.6.146-.167.32-.3.525-.393a1.59 1.59 0 0 1 .685-.142c.222 0 .427.039.61.117.186.078.344.183.478.315s.237.283.312.454c.073.171.11.352.11.54h-2.528c0 .229.03.439.088.633a1.6 1.6 0 0 0 .248.502c.105.14.232.251.378.33.146.08.306.12.48.12.148 0 .288-.024.422-.07.133-.047.255-.11.365-.187.109-.078.202-.166.279-.266a1 1 0 0 0 .165-.306l.193.086a1.547 1.547 0 0 1-.235.488 1.94 1.94 0 0 1-.378.399 1.809 1.809 0 0 1-.472.27 1.43 1.43 0 0 1-.52.099zM138.212 48.147a.704.704 0 0 0 .453-.155.52.52 0 0 0 .13-.16.383.383 0 0 0 .047-.184.477.477 0 0 0-.078-.272.815.815 0 0 0-.206-.205 1.991 1.991 0 0 0-.288-.169l-.335-.157a4.596 4.596 0 0 1-.333-.17 1.486 1.486 0 0 1-.288-.215 1.03 1.03 0 0 1-.205-.281.842.842 0 0 1-.078-.376.84.84 0 0 1 .326-.675 1.19 1.19 0 0 1 .367-.198c.14-.048.297-.072.464-.072.113 0 .217.008.314.022a1.069 1.069 0 0 1 .57.282c.094.082.19.19.293.321l-.248.22a1.48 1.48 0 0 0-.43-.465.914.914 0 0 0-.77-.12.684.684 0 0 0-.206.098.454.454 0 0 0-.133.141.346.346 0 0 0-.048.176.44.44 0 0 0 .147.337c.098.09.219.171.365.243.146.073.305.143.475.212.172.069.33.149.476.238.146.09.267.199.365.324a.754.754 0 0 1 .146.473c0 .144-.026.278-.079.403a.862.862 0 0 1-.24.324 1.192 1.192 0 0 1-.406.216 1.868 1.868 0 0 1-.567.079c-.1 0-.203-.009-.307-.023a1.198 1.198 0 0 1-.315-.09 1.445 1.445 0 0 1-.319-.19 1.772 1.772 0 0 1-.312-.323l.274-.248c.08.115.16.212.234.293.076.08.153.148.23.198a.888.888 0 0 0 .515.148"/>
    </g>
</svg>
